<svg width="217" height="64" viewBox="0 0 217 64" fill="none" xmlns="http://www.w3.org/2000/svg">
<rect width="217" height="64" rx="3" fill="#0D6EFD"/>
<path d="M42.6391 40V23.9H45.6291V37.47H54.0471V40H42.6391ZM61.7923 40.161C60.4276 40.161 59.2316 39.8927 58.2043 39.356C57.1923 38.804 56.4026 38.0527 55.8353 37.102C55.2833 36.1513 55.0073 35.0703 55.0073 33.859C55.0073 32.6323 55.2756 31.5513 55.8123 30.616C56.3643 29.6653 57.1156 28.9217 58.0663 28.385C59.0323 27.8483 60.1286 27.58 61.3553 27.58C62.5513 27.58 63.617 27.8407 64.5523 28.362C65.4876 28.8833 66.2236 29.6193 66.7603 30.57C67.297 31.5207 67.5653 32.64 67.5653 33.928C67.5653 34.0507 67.5576 34.1887 67.5423 34.342C67.5423 34.4953 67.5346 34.641 67.5193 34.779H57.2843V32.87H66.0013L64.8743 33.468C64.8896 32.7627 64.744 32.1417 64.4373 31.605C64.1306 31.0683 63.709 30.6467 63.1723 30.34C62.651 30.0333 62.0453 29.88 61.3553 29.88C60.65 29.88 60.029 30.0333 59.4923 30.34C58.971 30.6467 58.557 31.076 58.2503 31.628C57.959 32.1647 57.8133 32.801 57.8133 33.537V33.997C57.8133 34.733 57.982 35.3847 58.3193 35.952C58.6566 36.5193 59.132 36.9563 59.7453 37.263C60.3586 37.5697 61.064 37.723 61.8613 37.723C62.5513 37.723 63.1723 37.6157 63.7243 37.401C64.2763 37.1863 64.767 36.849 65.1963 36.389L66.7373 38.16C66.1853 38.804 65.4876 39.3023 64.6443 39.655C63.8163 39.9923 62.8656 40.161 61.7923 40.161ZM77.557 40V37.516L77.396 36.987V32.64C77.396 31.7967 77.143 31.145 76.637 30.685C76.131 30.2097 75.3643 29.972 74.337 29.972C73.647 29.972 72.9647 30.0793 72.29 30.294C71.6307 30.5087 71.071 30.8077 70.611 31.191L69.484 29.098C70.1433 28.592 70.9253 28.2163 71.83 27.971C72.75 27.7103 73.7007 27.58 74.682 27.58C76.4607 27.58 77.833 28.0093 78.799 28.868C79.7803 29.7113 80.271 31.0223 80.271 32.801V40H77.557ZM73.693 40.161C72.773 40.161 71.968 40.0077 71.278 39.701C70.588 39.379 70.0513 38.942 69.668 38.39C69.3 37.8227 69.116 37.1863 69.116 36.481C69.116 35.791 69.277 35.17 69.599 34.618C69.9363 34.066 70.4807 33.629 71.232 33.307C71.9833 32.985 72.98 32.824 74.222 32.824H77.787V34.733H74.429C73.4477 34.733 72.7883 34.894 72.451 35.216C72.1137 35.5227 71.945 35.906 71.945 36.366C71.945 36.8873 72.152 37.3013 72.566 37.608C72.98 37.9147 73.555 38.068 74.291 38.068C74.9963 38.068 75.625 37.907 76.177 37.585C76.7443 37.263 77.1507 36.7877 77.396 36.159L77.879 37.884C77.603 38.6047 77.1047 39.1643 76.384 39.563C75.6787 39.9617 74.7817 40.161 73.693 40.161ZM83.9607 40V27.718H86.6977V31.099L86.3757 30.11C86.7437 29.282 87.3187 28.6533 88.1007 28.224C88.898 27.7947 89.887 27.58 91.0677 27.58V30.317C90.945 30.2863 90.83 30.271 90.7227 30.271C90.6154 30.2557 90.508 30.248 90.4007 30.248C89.312 30.248 88.4457 30.57 87.8017 31.214C87.1577 31.8427 86.8357 32.7857 86.8357 34.043V40H83.9607ZM100.476 27.58C101.457 27.58 102.331 27.7717 103.098 28.155C103.88 28.5383 104.493 29.1287 104.938 29.926C105.382 30.708 105.605 31.72 105.605 32.962V40H102.73V33.33C102.73 32.2413 102.469 31.4287 101.948 30.892C101.442 30.3553 100.729 30.087 99.8086 30.087C99.1339 30.087 98.5359 30.225 98.0146 30.501C97.4933 30.777 97.0869 31.191 96.7956 31.743C96.5196 32.2797 96.3816 32.962 96.3816 33.79V40H93.5066V27.718H96.2436V31.03L95.7606 30.018C96.1899 29.236 96.8109 28.638 97.6236 28.224C98.4516 27.7947 99.4023 27.58 100.476 27.58ZM131.11 27.58C132.092 27.58 132.958 27.7717 133.709 28.155C134.476 28.5383 135.074 29.1287 135.503 29.926C135.933 30.708 136.147 31.72 136.147 32.962V40H133.272V33.33C133.272 32.2413 133.035 31.4287 132.559 30.892C132.084 30.3553 131.402 30.087 130.512 30.087C129.884 30.087 129.324 30.225 128.833 30.501C128.358 30.777 127.982 31.1833 127.706 31.72C127.446 32.2567 127.315 32.939 127.315 33.767V40H124.44V33.33C124.44 32.2413 124.203 31.4287 123.727 30.892C123.252 30.3553 122.57 30.087 121.68 30.087C121.052 30.087 120.492 30.225 120.001 30.501C119.526 30.777 119.15 31.1833 118.874 31.72C118.614 32.2567 118.483 32.939 118.483 33.767V40H115.608V27.718H118.345V30.984L117.862 30.018C118.276 29.2207 118.874 28.615 119.656 28.201C120.454 27.787 121.358 27.58 122.37 27.58C123.52 27.58 124.517 27.8637 125.36 28.431C126.219 28.9983 126.786 29.857 127.062 31.007L125.935 30.616C126.334 29.696 126.993 28.96 127.913 28.408C128.833 27.856 129.899 27.58 131.11 27.58ZM145.364 40.161C144.106 40.161 142.987 39.8927 142.006 39.356C141.024 38.804 140.25 38.0527 139.683 37.102C139.115 36.1513 138.832 35.0703 138.832 33.859C138.832 32.6323 139.115 31.5513 139.683 30.616C140.25 29.6653 141.024 28.9217 142.006 28.385C142.987 27.8483 144.106 27.58 145.364 27.58C146.636 27.58 147.763 27.8483 148.745 28.385C149.741 28.9217 150.516 29.6577 151.068 30.593C151.635 31.5283 151.919 32.617 151.919 33.859C151.919 35.0703 151.635 36.1513 151.068 37.102C150.516 38.0527 149.741 38.804 148.745 39.356C147.763 39.8927 146.636 40.161 145.364 40.161ZM145.364 37.7C146.069 37.7 146.698 37.5467 147.25 37.24C147.802 36.9333 148.231 36.4887 148.538 35.906C148.86 35.3233 149.021 34.641 149.021 33.859C149.021 33.0617 148.86 32.3793 148.538 31.812C148.231 31.2293 147.802 30.7847 147.25 30.478C146.698 30.1713 146.077 30.018 145.387 30.018C144.681 30.018 144.053 30.1713 143.501 30.478C142.964 30.7847 142.535 31.2293 142.213 31.812C141.891 32.3793 141.73 33.0617 141.73 33.859C141.73 34.641 141.891 35.3233 142.213 35.906C142.535 36.4887 142.964 36.9333 143.501 37.24C144.053 37.5467 144.674 37.7 145.364 37.7ZM154.668 40V27.718H157.405V31.099L157.083 30.11C157.451 29.282 158.026 28.6533 158.808 28.224C159.605 27.7947 160.594 27.58 161.775 27.58V30.317C161.652 30.2863 161.537 30.271 161.43 30.271C161.322 30.2557 161.215 30.248 161.108 30.248C160.019 30.248 159.153 30.57 158.509 31.214C157.865 31.8427 157.543 32.7857 157.543 34.043V40H154.668ZM169.874 40.161C168.51 40.161 167.314 39.8927 166.286 39.356C165.274 38.804 164.485 38.0527 163.917 37.102C163.365 36.1513 163.089 35.0703 163.089 33.859C163.089 32.6323 163.358 31.5513 163.894 30.616C164.446 29.6653 165.198 28.9217 166.148 28.385C167.114 27.8483 168.211 27.58 169.437 27.58C170.633 27.58 171.699 27.8407 172.634 28.362C173.57 28.8833 174.306 29.6193 174.842 30.57C175.379 31.5207 175.647 32.64 175.647 33.928C175.647 34.0507 175.64 34.1887 175.624 34.342C175.624 34.4953 175.617 34.641 175.601 34.779H165.366V32.87H174.083L172.956 33.468C172.972 32.7627 172.826 32.1417 172.519 31.605C172.213 31.0683 171.791 30.6467 171.254 30.34C170.733 30.0333 170.127 29.88 169.437 29.88C168.732 29.88 168.111 30.0333 167.574 30.34C167.053 30.6467 166.639 31.076 166.332 31.628C166.041 32.1647 165.895 32.801 165.895 33.537V33.997C165.895 34.733 166.064 35.3847 166.401 35.952C166.739 36.5193 167.214 36.9563 167.827 37.263C168.441 37.5697 169.146 37.723 169.943 37.723C170.633 37.723 171.254 37.6157 171.806 37.401C172.358 37.1863 172.849 36.849 173.278 36.389L174.819 38.16C174.267 38.804 173.57 39.3023 172.726 39.655C171.898 39.9923 170.948 40.161 169.874 40.161Z" fill="white"/>
</svg>
