<svg width="78" height="23" viewBox="0 0 78 23" fill="none" xmlns="http://www.w3.org/2000/svg">
<path d="M13.632 15.56C13.632 16.792 13.16 17.84 12.216 18.704C11.272 19.552 9.888 20.024 8.064 20.12V22.88H6.864V20.144C5.696 20.08 4.592 19.856 3.552 19.472C2.528 19.072 1.72 18.568 1.128 17.96L1.824 16.592C2.384 17.136 3.112 17.592 4.008 17.96C4.92 18.328 5.872 18.544 6.864 18.608V12.296C5.76 12.024 4.84 11.736 4.104 11.432C3.368 11.112 2.752 10.656 2.256 10.064C1.776 9.456 1.536 8.656 1.536 7.664C1.536 6.432 1.984 5.4 2.88 4.568C3.776 3.72 5.104 3.224 6.864 3.08V0.319999H8.064V3.056C8.976 3.088 9.856 3.24 10.704 3.512C11.568 3.768 12.312 4.112 12.936 4.544L12.336 5.96C11.68 5.544 10.984 5.216 10.248 4.976C9.512 4.736 8.784 4.6 8.064 4.568V10.928C9.248 11.216 10.216 11.512 10.968 11.816C11.72 12.104 12.352 12.552 12.864 13.16C13.376 13.768 13.632 14.568 13.632 15.56ZM3.288 7.616C3.288 8.448 3.592 9.08 4.2 9.512C4.824 9.944 5.712 10.312 6.864 10.616V4.616C5.68 4.712 4.784 5.04 4.176 5.6C3.584 6.144 3.288 6.816 3.288 7.616ZM8.064 18.608C9.328 18.512 10.28 18.2 10.92 17.672C11.56 17.144 11.88 16.472 11.88 15.656C11.88 14.792 11.552 14.144 10.896 13.712C10.24 13.28 9.296 12.912 8.064 12.608V18.608ZM20.4296 10.088C22.8616 10.088 24.6296 10.528 25.7336 11.408C26.8536 12.272 27.4136 13.488 27.4136 15.056C27.4136 16.032 27.1816 16.904 26.7176 17.672C26.2696 18.44 25.5896 19.048 24.6776 19.496C23.7656 19.928 22.6456 20.144 21.3176 20.144C20.1176 20.144 18.9736 19.952 17.8856 19.568C16.8136 19.168 15.9496 18.64 15.2936 17.984L16.1336 16.616C16.6936 17.192 17.4296 17.664 18.3416 18.032C19.2536 18.384 20.2376 18.56 21.2936 18.56C22.6856 18.56 23.7576 18.248 24.5096 17.624C25.2776 17 25.6616 16.168 25.6616 15.128C25.6616 13.976 25.2296 13.104 24.3656 12.512C23.5176 11.92 22.0776 11.624 20.0456 11.624H16.4696L17.3336 3.2H26.5256V4.736H18.8456L18.2696 10.088H20.4296ZM34.8394 3.056C37.0634 3.056 38.7674 3.792 39.9514 5.264C41.1354 6.72 41.7274 8.784 41.7274 11.456C41.7274 13.328 41.4074 14.912 40.7674 16.208C40.1274 17.504 39.2314 18.488 38.0794 19.16C36.9274 19.816 35.5834 20.144 34.0474 20.144C32.3834 20.144 31.0554 19.84 30.0634 19.232L30.7594 17.84C31.5594 18.368 32.6474 18.632 34.0234 18.632C35.8794 18.632 37.3354 18.048 38.3914 16.88C39.4474 15.696 39.9754 13.984 39.9754 11.744C39.9754 11.328 39.9514 10.872 39.9034 10.376C39.4874 11.288 38.8234 12 37.9114 12.512C36.9994 13.008 35.9514 13.256 34.7674 13.256C33.6634 13.256 32.6794 13.048 31.8154 12.632C30.9674 12.216 30.3034 11.632 29.8234 10.88C29.3434 10.112 29.1034 9.224 29.1034 8.216C29.1034 7.192 29.3514 6.288 29.8474 5.504C30.3434 4.72 31.0234 4.12 31.8874 3.704C32.7674 3.272 33.7514 3.056 34.8394 3.056ZM35.0314 11.792C35.8794 11.792 36.6234 11.632 37.2634 11.312C37.9194 10.992 38.4314 10.552 38.7994 9.992C39.1674 9.432 39.3514 8.808 39.3514 8.12C39.3514 7.48 39.1754 6.888 38.8234 6.344C38.4874 5.8 37.9834 5.36 37.3114 5.024C36.6394 4.688 35.8394 4.52 34.9114 4.52C33.6954 4.52 32.7034 4.856 31.9354 5.528C31.1834 6.184 30.8074 7.064 30.8074 8.168C30.8074 9.272 31.1834 10.152 31.9354 10.808C32.7034 11.464 33.7354 11.792 35.0314 11.792ZM45.2706 20.12C44.9186 20.12 44.6146 19.992 44.3586 19.736C44.1186 19.48 43.9986 19.168 43.9986 18.8C43.9986 18.432 44.1186 18.128 44.3586 17.888C44.6146 17.632 44.9186 17.504 45.2706 17.504C45.6226 17.504 45.9266 17.632 46.1826 17.888C46.4386 18.128 46.5666 18.432 46.5666 18.8C46.5666 19.168 46.4386 19.48 46.1826 19.736C45.9266 19.992 45.6226 20.12 45.2706 20.12ZM54.2925 3.056C56.5165 3.056 58.2205 3.792 59.4045 5.264C60.5885 6.72 61.1805 8.784 61.1805 11.456C61.1805 13.328 60.8605 14.912 60.2205 16.208C59.5805 17.504 58.6845 18.488 57.5325 19.16C56.3805 19.816 55.0365 20.144 53.5005 20.144C51.8365 20.144 50.5085 19.84 49.5165 19.232L50.2125 17.84C51.0125 18.368 52.1005 18.632 53.4765 18.632C55.3325 18.632 56.7885 18.048 57.8445 16.88C58.9005 15.696 59.4285 13.984 59.4285 11.744C59.4285 11.328 59.4045 10.872 59.3565 10.376C58.9405 11.288 58.2765 12 57.3645 12.512C56.4525 13.008 55.4045 13.256 54.2205 13.256C53.1165 13.256 52.1325 13.048 51.2685 12.632C50.4205 12.216 49.7565 11.632 49.2765 10.88C48.7965 10.112 48.5565 9.224 48.5565 8.216C48.5565 7.192 48.8045 6.288 49.3005 5.504C49.7965 4.72 50.4765 4.12 51.3405 3.704C52.2205 3.272 53.2045 3.056 54.2925 3.056ZM54.4845 11.792C55.3325 11.792 56.0765 11.632 56.7165 11.312C57.3725 10.992 57.8845 10.552 58.2525 9.992C58.6205 9.432 58.8045 8.808 58.8045 8.12C58.8045 7.48 58.6285 6.888 58.2765 6.344C57.9405 5.8 57.4365 5.36 56.7645 5.024C56.0925 4.688 55.2925 4.52 54.3645 4.52C53.1485 4.52 52.1565 4.856 51.3885 5.528C50.6365 6.184 50.2605 7.064 50.2605 8.168C50.2605 9.272 50.6365 10.152 51.3885 10.808C52.1565 11.464 53.1885 11.792 54.4845 11.792ZM68.9175 3.056C71.1415 3.056 72.8455 3.792 74.0295 5.264C75.2135 6.72 75.8055 8.784 75.8055 11.456C75.8055 13.328 75.4855 14.912 74.8455 16.208C74.2055 17.504 73.3095 18.488 72.1575 19.16C71.0055 19.816 69.6615 20.144 68.1255 20.144C66.4615 20.144 65.1335 19.84 64.1415 19.232L64.8375 17.84C65.6375 18.368 66.7255 18.632 68.1015 18.632C69.9575 18.632 71.4135 18.048 72.4695 16.88C73.5255 15.696 74.0535 13.984 74.0535 11.744C74.0535 11.328 74.0295 10.872 73.9815 10.376C73.5655 11.288 72.9015 12 71.9895 12.512C71.0775 13.008 70.0295 13.256 68.8455 13.256C67.7415 13.256 66.7575 13.048 65.8935 12.632C65.0455 12.216 64.3815 11.632 63.9015 10.88C63.4215 10.112 63.1815 9.224 63.1815 8.216C63.1815 7.192 63.4295 6.288 63.9255 5.504C64.4215 4.72 65.1015 4.12 65.9655 3.704C66.8455 3.272 67.8295 3.056 68.9175 3.056ZM69.1095 11.792C69.9575 11.792 70.7015 11.632 71.3415 11.312C71.9975 10.992 72.5095 10.552 72.8775 9.992C73.2455 9.432 73.4295 8.808 73.4295 8.12C73.4295 7.48 73.2535 6.888 72.9015 6.344C72.5655 5.8 72.0615 5.36 71.3895 5.024C70.7175 4.688 69.9175 4.52 68.9895 4.52C67.7735 4.52 66.7815 4.856 66.0135 5.528C65.2615 6.184 64.8855 7.064 64.8855 8.168C64.8855 9.272 65.2615 10.152 66.0135 10.808C66.7815 11.464 67.8135 11.792 69.1095 11.792Z" fill="#C4C4C4"/>
<path d="M0 12.44H77.0535V13.64H0V12.44Z" fill="#C4C4C4"/>
</svg>
